<svg xmlns="http://www.w3.org/2000/svg" width="31" height="32" viewBox="0 0 31 32" fill="none">
<path d="M30.8599 25.6C30.8599 30.72 20.6199 32 15.4999 32C10.3799 32 0.139893 30.72 0.139893 25.6C0.139893 20.48 10.3799 0 15.4999 0C20.6199 0 30.8599 20.48 30.8599 25.6Z" fill="#000"/>
<path d="M18.0599 7.6801C16.646 6.26629 14.3537 6.26621 12.9399 7.6801C11.66 8.96014 12.9399 20.4801 15.4999 20.4801C18.0599 20.4801 19.3399 8.96 18.0599 7.6801Z" fill="white"/>
<path d="M18.0599 25.6C18.0599 27.0138 16.9137 28.16 15.4999 28.16C14.086 28.16 12.9399 27.0138 12.9399 25.6C12.9399 24.1861 14.086 23.04 15.4999 23.04C16.9137 23.04 18.0599 24.1861 18.0599 25.6Z" fill="white"/>
</svg>